<svg xmlns="http://www.w3.org/2000/svg" width="960" height="640" viewBox="0 0 960 640" role="img" aria-labelledby="title desc"><title id="title">CRM</title><desc id="desc">Quản lý hành trình khách hàng. Khách mới → Đang tư vấn → Theo dõi → Hoàn tất. Giao diện minh họa tác vụ, không phải ảnh chụp sản phẩm thực tế.</desc><defs><linearGradient id="bg" x2="1" y2="1"><stop stop-color="#dcf3ed"/><stop offset="1" stop-color="#cbd8e4"/></linearGradient><filter id="shadow" x="-20%" y="-20%" width="140%" height="150%"><feDropShadow dx="0" dy="13" stdDeviation="16" flood-color="#23394b" flood-opacity=".14"/></filter></defs><g font-family="Segoe UI,Arial,sans-serif"><rect x="0" y="0" width="960" height="640" rx="0" fill="url(#bg)" stroke="none"/><circle cx="894" cy="22" r="202" fill="#ffffff28"/><text x="61" y="58" font-size="22" fill="#20384d" font-weight="700">CRM</text><text x="61" y="91" font-size="17" fill="#546e83" font-weight="500">Quản lý hành trình khách hàng</text><rect x="746" y="40" width="154" height="28" rx="14" fill="#ffffff80" stroke="none"/><text x="762" y="59" font-size="10" fill="#209482" font-weight="700">POWAI / SOLUTIONS</text><g filter="url(#shadow)"><text x="106" y="173" font-size="14" fill="#209482" font-weight="700">QUẢN LÝ / HÀNH TRÌNH</text><rect x="94" y="197" width="184" height="340" rx="12" fill="#edf2f7" stroke="none"/><rect x="106" y="211" width="160" height="40" rx="7" fill="#209482" stroke="none"/><text x="116" y="237" font-size="14" fill="#fff" font-weight="650">Khách mới</text><rect x="106" y="264" width="160" height="110" rx="9" fill="#fff" stroke="none"/><circle cx="125" cy="285" r="8" fill="#209482"/><text x="141" y="291" font-size="13" fill="#42596d" font-weight="650">Hồ sơ mẫu</text><rect x="119" y="313" width="130" height="5" rx="2" fill="#dce5ee" stroke="none"/><rect x="119" y="329" width="88.4" height="5" rx="2" fill="#dce5ee" stroke="none"/><rect x="119" y="347" width="104" height="16" rx="4" fill="#dcf3ed" stroke="none"/><rect x="106" y="391" width="160" height="110" rx="9" fill="#fff" stroke="none"/><circle cx="125" cy="412" r="8" fill="#209482"/><text x="141" y="418" font-size="13" fill="#42596d" font-weight="650">Hồ sơ mẫu</text><rect x="119" y="440" width="130" height="5" rx="2" fill="#dce5ee" stroke="none"/><rect x="119" y="456" width="88.4" height="5" rx="2" fill="#dce5ee" stroke="none"/><rect x="119" y="474" width="104" height="16" rx="4" fill="#dcf3ed" stroke="none"/><rect x="291" y="197" width="184" height="340" rx="12" fill="#edf2f7" stroke="none"/><rect x="303" y="211" width="160" height="40" rx="7" fill="#dcf3ed" stroke="none"/><text x="313" y="237" font-size="14" fill="#209482" font-weight="650">Đang tư vấn</text><rect x="303" y="264" width="160" height="110" rx="9" fill="#fff" stroke="none"/><circle cx="322" cy="285" r="8" fill="#209482"/><text x="338" y="291" font-size="13" fill="#42596d" font-weight="650">Hồ sơ mẫu</text><rect x="316" y="313" width="130" height="5" rx="2" fill="#dce5ee" stroke="none"/><rect x="316" y="329" width="88.4" height="5" rx="2" fill="#dce5ee" stroke="none"/><rect x="316" y="347" width="104" height="16" rx="4" fill="#dcf3ed" stroke="none"/><rect x="303" y="391" width="160" height="110" rx="9" fill="#fff" stroke="none"/><circle cx="322" cy="412" r="8" fill="#209482"/><text x="338" y="418" font-size="13" fill="#42596d" font-weight="650">Hồ sơ mẫu</text><rect x="316" y="440" width="130" height="5" rx="2" fill="#dce5ee" stroke="none"/><rect x="316" y="456" width="88.4" height="5" rx="2" fill="#dce5ee" stroke="none"/><rect x="316" y="474" width="104" height="16" rx="4" fill="#dcf3ed" stroke="none"/><rect x="488" y="197" width="184" height="340" rx="12" fill="#edf2f7" stroke="none"/><rect x="500" y="211" width="160" height="40" rx="7" fill="#dcf3ed" stroke="none"/><text x="510" y="237" font-size="14" fill="#209482" font-weight="650">Theo dõi</text><rect x="500" y="264" width="160" height="110" rx="9" fill="#fff" stroke="none"/><circle cx="519" cy="285" r="8" fill="#209482"/><text x="535" y="291" font-size="13" fill="#42596d" font-weight="650">Hồ sơ mẫu</text><rect x="513" y="313" width="130" height="5" rx="2" fill="#dce5ee" stroke="none"/><rect x="513" y="329" width="88.4" height="5" rx="2" fill="#dce5ee" stroke="none"/><rect x="513" y="347" width="104" height="16" rx="4" fill="#dcf3ed" stroke="none"/><rect x="500" y="391" width="160" height="110" rx="9" fill="#fff" stroke="none"/><circle cx="519" cy="412" r="8" fill="#209482"/><text x="535" y="418" font-size="13" fill="#42596d" font-weight="650">Hồ sơ mẫu</text><rect x="513" y="440" width="130" height="5" rx="2" fill="#dce5ee" stroke="none"/><rect x="513" y="456" width="88.4" height="5" rx="2" fill="#dce5ee" stroke="none"/><rect x="513" y="474" width="104" height="16" rx="4" fill="#dcf3ed" stroke="none"/><rect x="685" y="197" width="184" height="340" rx="12" fill="#edf2f7" stroke="none"/><rect x="697" y="211" width="160" height="40" rx="7" fill="#dcf3ed" stroke="none"/><text x="707" y="237" font-size="14" fill="#209482" font-weight="650">Hoàn tất</text><rect x="697" y="264" width="160" height="110" rx="9" fill="#fff" stroke="none"/><circle cx="716" cy="285" r="8" fill="#209482"/><text x="732" y="291" font-size="13" fill="#42596d" font-weight="650">Hồ sơ mẫu</text><rect x="710" y="313" width="130" height="5" rx="2" fill="#dce5ee" stroke="none"/><rect x="710" y="329" width="88.4" height="5" rx="2" fill="#dce5ee" stroke="none"/><rect x="710" y="347" width="104" height="16" rx="4" fill="#dcf3ed" stroke="none"/><rect x="697" y="391" width="160" height="110" rx="9" fill="#fff" stroke="none"/><circle cx="716" cy="412" r="8" fill="#209482"/><text x="732" y="418" font-size="13" fill="#42596d" font-weight="650">Hồ sơ mẫu</text><rect x="710" y="440" width="130" height="5" rx="2" fill="#dce5ee" stroke="none"/><rect x="710" y="456" width="88.4" height="5" rx="2" fill="#dce5ee" stroke="none"/><rect x="710" y="474" width="104" height="16" rx="4" fill="#dcf3ed" stroke="none"/></g><text x="61" y="604" font-size="11" fill="#516b7f" font-weight="600">MINH HỌA TÁC VỤ / Khách mới → Đang tư vấn → Theo dõi → Hoàn tất</text></g></svg>