<svg xmlns="http://www.w3.org/2000/svg" width="960" height="640" viewBox="0 0 960 640" role="img" aria-labelledby="title desc"><title id="title">Thiết kế Social Media</title><desc id="desc">Bộ thiết kế nhận diện social. Bài vuông → Story dọc → Ảnh bìa → Bảng màu. Giao diện minh họa tác vụ, không phải ảnh chụp sản phẩm thực tế.</desc><defs><linearGradient id="bg" x2="1" y2="1"><stop stop-color="#f8e3ef"/><stop offset="1" stop-color="#cbd8e4"/></linearGradient><filter id="shadow" x="-20%" y="-20%" width="140%" height="150%"><feDropShadow dx="0" dy="13" stdDeviation="16" flood-color="#23394b" flood-opacity=".14"/></filter></defs><g font-family="Segoe UI,Arial,sans-serif"><rect x="0" y="0" width="960" height="640" rx="0" fill="url(#bg)" stroke="none"/><circle cx="894" cy="22" r="202" fill="#ffffff28"/><text x="61" y="58" font-size="22" fill="#20384d" font-weight="700">Thiết kế Social Media</text><text x="61" y="91" font-size="17" fill="#546e83" font-weight="500">Bộ thiết kế nhận diện social</text><rect x="746" y="40" width="154" height="28" rx="14" fill="#ffffff80" stroke="none"/><text x="762" y="59" font-size="10" fill="#b35d8b" font-weight="700">POWAI / SOLUTIONS</text><g filter="url(#shadow)"><rect x="104" y="164" width="349" height="379" rx="15" fill="#fff" stroke="none"/><text x="125" y="201" font-size="14" fill="#b35d8b" font-weight="700">NHẬN DIỆN / THIẾT KẾ</text><g><rect x="126" y="223" width="305" height="203" rx="12" fill="#f8e3ef" stroke="none"/><circle cx="339.5" cy="279.84000000000003" r="40.6" fill="#fff" opacity=".25"/><path d="M126 426 L226.65 296.08 L324.25 426Z" fill="#fff" opacity=".24"/><g transform="translate(272.4 287.96000000000004) scale(0.9902439024390244)"><rect x="0" y="22" width="70" height="110" rx="12" fill="#8ea6a0" stroke="none"/><rect x="19" y="0" width="32" height="26" rx="5" fill="#243d46" stroke="none"/><rect x="8" y="51" width="54" height="47" rx="3" fill="#f1f2e7" stroke="none"/><text x="14" y="72" font-size="12" fill="#314c50" font-weight="700">PURE</text><path d="M17 83L50 83" stroke="#9caca4" stroke-width="2" fill="none"/><path d="M8 33V110" stroke="#ffffff" opacity=".3" stroke-width="4"/></g></g><circle cx="141" cy="463" r="16" fill="#b35d8b"/><text x="124" y="503" font-size="12" fill="#23374b" font-weight="500">Bài vuông</text><circle cx="241" cy="463" r="16" fill="#20374a"/><text x="224" y="503" font-size="12" fill="#23374b" font-weight="500">Story dọc</text><circle cx="341" cy="463" r="16" fill="#f8e3ef"/><text x="324" y="503" font-size="12" fill="#23374b" font-weight="500">Ảnh bìa</text><g><rect x="482" y="165" width="194" height="379" rx="12" fill="#f8e3ef" stroke="none"/><circle cx="617.8" cy="271.12" r="75.8" fill="#fff" opacity=".25"/><path d="M482 544 L546.02 301.44 L608.1 544Z" fill="#fff" opacity=".24"/><g transform="translate(575.12 286.28) scale(1.8487804878048781)"><rect x="0" y="22" width="70" height="110" rx="12" fill="#8ea6a0" stroke="none"/><rect x="19" y="0" width="32" height="26" rx="5" fill="#243d46" stroke="none"/><rect x="8" y="51" width="54" height="47" rx="3" fill="#f1f2e7" stroke="none"/><text x="14" y="72" font-size="12" fill="#314c50" font-weight="700">PURE</text><path d="M17 83L50 83" stroke="#9caca4" stroke-width="2" fill="none"/><path d="M8 33V110" stroke="#ffffff" opacity=".3" stroke-width="4"/></g></g><rect x="701" y="165" width="157" height="180" rx="13" fill="#b35d8b" stroke="none"/><text x="719" y="212" font-size="22" fill="#fff" font-weight="700">BRAND</text><text x="719" y="242" font-size="20" fill="#fff" font-weight="500">SYSTEM</text><rect x="701" y="367" width="157" height="177" rx="13" fill="#fff" stroke="none"/><text x="718" y="405" font-size="14" fill="#b35d8b" font-weight="700">Bảng màu</text><rect x="718" y="435" width="112" height="5" rx="2" fill="#dce5ee" stroke="none"/><rect x="718" y="451" width="112" height="5" rx="2" fill="#dce5ee" stroke="none"/><rect x="718" y="467" width="112" height="5" rx="2" fill="#dce5ee" stroke="none"/><rect x="718" y="483" width="76.16000000000001" height="5" rx="2" fill="#dce5ee" stroke="none"/></g><text x="61" y="604" font-size="11" fill="#516b7f" font-weight="600">MINH HỌA TÁC VỤ / Bài vuông → Story dọc → Ảnh bìa → Bảng màu</text></g></svg>