<svg xmlns="http://www.w3.org/2000/svg" viewBox="0 0 360 220"><defs><radialGradient id="g"><stop stop-color="#15394a"/><stop offset="1" stop-color="#07121e"/></radialGradient></defs><rect width="360" height="220" rx="12" fill="url(#g)"/><g fill="none" stroke="#204052" stroke-width="1"><path d="M0 55h360M0 110h360M0 165h360M90 0v220M180 0v220M270 0v220" opacity=".4"/><circle cx="180" cy="110" r="94" opacity=".6"/></g><g fill="#102734" stroke="#91dcea" stroke-width="2" stroke-linecap="round" stroke-linejoin="round"><rect x="43" y="37" width="274" height="151" rx="9"/><path d="M43 66h274M61 52h52M64 88h72v35H64zM64 140h72v27H64zM158 164h135M167 153v-27m24 27v-50m25 50V88m24 65v-40m25 40v-67"/></g></svg>