<svg xmlns="http://www.w3.org/2000/svg" viewBox="0 0 360 220"><defs><radialGradient id="g"><stop stop-color="#15394a"/><stop offset="1" stop-color="#07121e"/></radialGradient></defs><rect width="360" height="220" rx="12" fill="url(#g)"/><g fill="none" stroke="#204052" stroke-width="1"><path d="M0 55h360M0 110h360M0 165h360M90 0v220M180 0v220M270 0v220" opacity=".4"/><circle cx="180" cy="110" r="94" opacity=".6"/></g><g fill="#102734" stroke="#91dcea" stroke-width="2" stroke-linecap="round" stroke-linejoin="round"><path d="M65 139V98h33v41m20 0V78h33v61m20 0V56h33v83"/><path d="m65 69 53-20 48 8 47-30m-26 0h26v26"/><circle cx="273" cy="93" r="40"/><circle cx="273" cy="93" r="24"/><circle cx="273" cy="93" r="7"/></g></svg>